<svg aria-hidden="true" style="position: absolute; width: 0; height: 0; overflow: hidden;" version="1.1" xmlns="http://www.w3.org/2000/svg" xmlns:xlink="http://www.w3.org/1999/xlink">
<defs>
<symbol id="tel" viewBox="0 0 32 32">
<path d="M22.891 0.25h-13.781c-1.628 0-2.953 1.325-2.953 2.953v25.594c0 1.629 1.325 2.953 2.953 2.953h13.781c1.628 0 2.953-1.325 2.953-2.953v-25.594c0-1.628-1.325-2.953-2.953-2.953zM9.109 2.219h13.781c0.543 0 0.984 0.441 0.984 0.984v20.672h-15.75v-20.672c0-0.543 0.441-0.984 0.984-0.984zM22.891 29.781h-13.781c-0.543 0-0.984-0.441-0.984-0.984v-2.953h15.75v2.953c0 0.543-0.441 0.984-0.984 0.984z"></path>
<path d="M10.79 27.298c0.384 0.359 0.384 0.941 0 1.3s-1.008 0.359-1.392 0c-0.384-0.359-0.384-0.941 0-1.3s1.008-0.359 1.392 0z"></path>
</symbol>
</defs>
</svg>
